<?xml version="1.0" encoding="UTF-8"?>
<svg width="100pt" height="100pt" version="1.1" viewBox="0 0 100 100" xmlns="http://www.w3.org/2000/svg">
 <g>
  <path d="m68.75 54.168v-4.168c0-3.543-2.707-6.25-6.25-6.25h-39.582c-3.543 0-6.25 2.707-6.25 6.25v20.832c0 3.332 2.707 6.25 6.25 6.25h39.582c3.543 0 6.25-2.918 6.25-6.25v-4.168l14.582 10.418v-33.332z"/>
  <path d="m39.582 30.207c0 5.1797-4.1953 9.375-9.375 9.375-5.1758 0-9.375-4.1953-9.375-9.375 0-5.1758 4.1992-9.375 9.375-9.375 5.1797 0 9.375 4.1992 9.375 9.375"/>
  <path d="m64.582 30.207c0 5.1797-4.1953 9.375-9.375 9.375-5.1758 0-9.375-4.1953-9.375-9.375 0-5.1758 4.1992-9.375 9.375-9.375 5.1797 0 9.375 4.1992 9.375 9.375"/>
 </g>
</svg>
